<svg xmlns="http://www.w3.org/2000/svg" xmlns:xlink="http://www.w3.org/1999/xlink" width="500" zoomAndPan="magnify" viewBox="0 0 375 374.999991" height="500" preserveAspectRatio="xMidYMid meet" version="1.0"><defs><clipPath id="01b191c877"><path d="M 91.042969 127.667969 L 283.792969 127.667969 L 283.792969 270.917969 L 91.042969 270.917969 Z M 91.042969 127.667969 " clip-rule="nonzero"/></clipPath></defs><rect x="-37.5" width="450" fill="#ffffff" y="-37.499999" height="449.999989" fill-opacity="1"/><rect x="-37.5" width="450" fill="#ffffff" y="-37.499999" height="449.999989" fill-opacity="1"/><g clip-path="url(#01b191c877)"><path fill="#545454" d="M 283.648438 148.917969 C 283.519531 148.785156 283.34375 148.652344 283.210938 148.566406 C 276.53125 143.121094 268.714844 142.464844 268.714844 142.464844 C 266.121094 133.945312 256.675781 127.667969 245.386719 127.667969 C 238.53125 127.667969 232.382812 129.996094 227.988281 133.726562 C 224.515625 136.710938 222.320312 139.566406 221.707031 143.824219 C 221.617188 144.132812 221.574219 144.484375 221.53125 144.789062 C 221.398438 145.535156 221.355469 146.328125 221.355469 147.117188 L 221.355469 147.160156 C 221.355469 147.6875 221.308594 148.214844 221.222656 148.742188 C 220.914062 150.585938 220.035156 152.339844 218.675781 153.660156 C 209.40625 162.703125 194.597656 173.984375 183.660156 188.429688 L 177.070312 194.664062 L 174.347656 197.207031 L 166.789062 204.363281 L 163.277344 207.65625 L 159.71875 211.039062 L 155.410156 215.078125 L 140.035156 229.5625 C 140.035156 229.5625 140.300781 229.519531 140.738281 229.476562 C 141.792969 229.386719 142.847656 229.257812 143.902344 229.167969 L 145.835938 228.949219 L 147.503906 228.730469 L 145.878906 229.476562 L 142.847656 231.453125 L 91.269531 265.035156 C 91.269531 265.035156 91.183594 265.5625 91.269531 266.351562 C 91.316406 266.925781 91.492188 267.582031 91.84375 268.242188 C 92.324219 269.164062 93.160156 270.085938 94.699219 270.566406 C 94.917969 270.65625 95.136719 270.699219 95.355469 270.742188 C 95.796875 270.832031 96.324219 270.917969 96.894531 270.917969 C 96.894531 270.917969 159.894531 229.210938 186.867188 232.550781 C 190.820312 234.347656 195.390625 235.578125 200.53125 236.105469 L 202.902344 261.171875 C 198.640625 261.085938 193.984375 262.796875 192.140625 266.878906 C 196.355469 262.664062 201.714844 263.675781 207.074219 263.632812 C 211.03125 265.871094 215.203125 266.96875 219.15625 269.339844 C 218.191406 266.484375 215.644531 264.378906 212.832031 263.410156 C 213.492188 263.367188 214.191406 263.324219 214.851562 263.28125 C 218.101562 263.015625 221.222656 264.203125 223.726562 266.351562 C 221.660156 262.269531 217.707031 261.171875 213.492188 260.953125 C 216.566406 258.671875 220.167969 258.625 223.859375 258.714844 C 224.957031 258.757812 226.054688 258.757812 227.195312 258.757812 C 231.152344 260.996094 235.324219 262.09375 239.277344 264.464844 C 238.3125 261.613281 235.765625 259.503906 232.953125 258.539062 C 233.609375 258.496094 234.3125 258.449219 234.972656 258.40625 C 238.222656 258.144531 241.34375 259.328125 243.847656 261.4375 C 240.464844 254.761719 232.03125 256.125 225.746094 256.125 L 225.351562 233.339844 C 229.832031 232.023438 234.535156 230.265625 239.367188 227.941406 C 239.675781 227.808594 239.980469 227.632812 240.289062 227.5 C 240.375 227.457031 240.464844 227.414062 240.597656 227.367188 C 240.816406 227.28125 241.035156 227.148438 241.210938 227.019531 C 241.300781 226.972656 241.429688 226.886719 241.519531 226.84375 C 241.738281 226.710938 241.957031 226.578125 242.179688 226.492188 C 242.265625 226.445312 242.355469 226.402344 242.398438 226.359375 C 242.660156 226.183594 242.96875 226.007812 243.230469 225.875 C 243.320312 225.832031 243.363281 225.789062 243.453125 225.746094 C 243.671875 225.613281 243.847656 225.480469 244.066406 225.347656 C 244.15625 225.304688 244.242188 225.21875 244.375 225.175781 C 244.550781 225.042969 244.726562 224.910156 244.945312 224.824219 C 245.035156 224.777344 245.121094 224.691406 245.210938 224.648438 C 245.472656 224.472656 245.691406 224.296875 245.957031 224.121094 C 246 224.121094 246 224.078125 246.042969 224.078125 C 246.265625 223.902344 246.527344 223.726562 246.746094 223.550781 C 246.835938 223.503906 246.921875 223.417969 247.011719 223.375 C 247.1875 223.242188 247.363281 223.109375 247.539062 222.980469 C 247.625 222.890625 247.714844 222.847656 247.800781 222.757812 C 247.976562 222.628906 248.152344 222.453125 248.328125 222.320312 C 248.371094 222.277344 248.460938 222.234375 248.503906 222.144531 C 248.722656 221.925781 248.988281 221.75 249.207031 221.53125 C 249.25 221.484375 249.339844 221.398438 249.382812 221.355469 C 249.558594 221.179688 249.734375 221.046875 249.910156 220.871094 C 249.996094 220.785156 250.085938 220.738281 250.128906 220.652344 C 250.304688 220.519531 250.4375 220.34375 250.613281 220.214844 C 250.699219 220.125 250.746094 220.082031 250.832031 219.992188 C 251.050781 219.773438 251.273438 219.554688 251.492188 219.335938 C 251.710938 219.117188 251.886719 218.894531 252.105469 218.675781 C 252.152344 218.589844 252.238281 218.542969 252.28125 218.457031 C 252.414062 218.28125 252.589844 218.105469 252.722656 217.972656 C 252.765625 217.886719 252.855469 217.84375 252.898438 217.753906 C 253.074219 217.578125 253.203125 217.402344 253.378906 217.183594 C 253.425781 217.140625 253.46875 217.097656 253.511719 217.050781 C 253.6875 216.832031 253.90625 216.570312 254.082031 216.351562 C 254.128906 216.304688 254.171875 216.261719 254.214844 216.21875 C 254.347656 216.042969 254.523438 215.824219 254.65625 215.648438 C 254.699219 215.558594 254.742188 215.515625 254.832031 215.429688 C 254.960938 215.253906 255.09375 215.03125 255.226562 214.855469 C 255.269531 214.8125 255.3125 214.726562 255.359375 214.679688 C 255.710938 214.199219 256.0625 213.671875 256.410156 213.144531 C 256.457031 213.101562 256.5 213.011719 256.5 212.96875 C 256.632812 212.75 256.761719 212.574219 256.894531 212.355469 C 256.9375 212.3125 256.984375 212.222656 257.027344 212.179688 C 257.160156 211.960938 257.335938 211.695312 257.464844 211.476562 C 257.464844 211.476562 257.511719 211.433594 257.511719 211.433594 C 257.6875 211.167969 257.816406 210.863281 257.992188 210.597656 C 257.992188 210.597656 257.992188 210.554688 258.039062 210.554688 C 258.167969 210.292969 258.300781 210.070312 258.433594 209.808594 C 258.476562 209.765625 258.476562 209.71875 258.519531 209.675781 C 258.652344 209.414062 258.785156 209.195312 258.917969 208.929688 C 258.917969 208.886719 258.960938 208.886719 258.960938 208.84375 C 259.269531 208.273438 259.53125 207.703125 259.792969 207.128906 C 259.792969 207.128906 259.792969 207.085938 259.839844 207.085938 C 259.96875 206.824219 260.101562 206.558594 260.191406 206.253906 C 260.191406 206.253906 260.191406 206.207031 260.234375 206.207031 C 260.628906 205.332031 260.980469 204.410156 261.332031 203.488281 C 261.332031 203.441406 261.375 203.398438 261.375 203.355469 C 261.597656 202.742188 261.816406 202.125 262.035156 201.511719 C 262.078125 201.421875 262.078125 201.335938 262.125 201.246094 C 262.210938 200.984375 262.300781 200.765625 262.386719 200.5 C 262.386719 200.457031 262.429688 200.371094 262.429688 200.324219 C 262.519531 200.019531 262.605469 199.753906 262.695312 199.449219 C 262.738281 199.359375 262.738281 199.273438 262.78125 199.140625 C 262.824219 198.921875 262.914062 198.703125 262.957031 198.480469 C 263 198.394531 263 198.261719 263.046875 198.175781 C 263.132812 197.867188 263.222656 197.605469 263.265625 197.296875 C 263.308594 197.207031 263.308594 197.121094 263.351562 197.03125 C 263.398438 196.8125 263.484375 196.59375 263.527344 196.375 C 263.574219 196.242188 263.574219 196.15625 263.617188 196.023438 C 263.660156 195.761719 263.75 195.496094 263.792969 195.234375 C 263.792969 195.144531 263.835938 195.058594 263.835938 194.96875 C 263.878906 194.707031 263.96875 194.488281 264.011719 194.222656 C 264.054688 194.136719 264.054688 194.003906 264.101562 193.917969 C 264.144531 193.695312 264.1875 193.476562 264.230469 193.257812 C 264.230469 193.167969 264.277344 193.082031 264.277344 193.039062 C 264.320312 192.730469 264.40625 192.46875 264.453125 192.160156 C 264.453125 192.074219 264.496094 191.984375 264.496094 191.898438 C 264.539062 191.675781 264.582031 191.457031 264.628906 191.195312 C 264.628906 191.105469 264.671875 191.019531 264.671875 190.929688 C 264.714844 190.625 264.757812 190.316406 264.804688 190.054688 C 264.804688 190.007812 264.804688 189.921875 264.847656 189.878906 C 264.890625 189.613281 264.933594 189.394531 264.980469 189.132812 C 264.980469 189.042969 265.023438 188.957031 265.023438 188.867188 C 265.066406 188.558594 265.109375 188.253906 265.15625 187.945312 C 265.242188 187.332031 265.332031 186.714844 265.375 186.101562 C 265.375 186.101562 265.375 186.101562 265.375 186.058594 C 265.550781 184.390625 265.683594 182.722656 265.769531 181.097656 C 266.078125 175.917969 265.945312 171.042969 265.636719 167.003906 C 265.199219 162.4375 266.078125 157.960938 267.921875 153.878906 C 268.097656 153.527344 268.230469 153.132812 268.363281 152.738281 C 276.09375 151.640625 280.792969 150.015625 282.683594 149.3125 C 283.34375 149.09375 283.648438 148.917969 283.648438 148.917969 Z M 244.636719 165.25 C 245.386719 165.292969 246.21875 165.335938 247.011719 165.335938 C 247.054688 165.335938 246.089844 165.378906 244.636719 165.25 Z M 221.96875 256.386719 C 218.410156 256.519531 214.765625 257.96875 212.789062 260.953125 C 210.328125 260.867188 207.777344 261.042969 205.539062 261.042969 L 205.097656 236.324219 C 209.976562 236.414062 215.246094 235.84375 220.871094 234.570312 L 222.9375 256.34375 C 222.671875 256.34375 222.320312 256.34375 221.96875 256.386719 Z M 221.96875 256.386719 " fill-opacity="1" fill-rule="nonzero"/></g></svg>