<svg xmlns="http://www.w3.org/2000/svg" xmlns:xlink="http://www.w3.org/1999/xlink" width="500" zoomAndPan="magnify" viewBox="0 0 375 374.999991" height="500" preserveAspectRatio="xMidYMid meet" version="1.0"><defs><clipPath id="56834fae98"><path d="M 53.800781 77 L 321 77 L 321 297 L 53.800781 297 Z M 53.800781 77 " clip-rule="nonzero"/></clipPath></defs><rect x="-37.5" width="450" fill="#ffffff" y="-37.499999" height="449.999989" fill-opacity="1"/><rect x="-37.5" width="450" fill="#ffffff" y="-37.499999" height="449.999989" fill-opacity="1"/><g clip-path="url(#56834fae98)"><path fill="#545454" d="M 319.898438 269.085938 C 318.226562 265.808594 311.207031 265.335938 305.0625 266.386719 C 298.839844 267.464844 286.488281 242.046875 276.1875 230.664062 C 272.488281 226.578125 269.546875 220.601562 269.980469 214.960938 C 270.429688 209.117188 275.101562 203.652344 278.027344 198.671875 C 285.632812 185.730469 282.222656 174.503906 284.289062 160.539062 C 285.527344 152.125 289.257812 143.847656 292.210938 135.925781 C 296.5 124.449219 292.011719 113.707031 291.125 109.078125 C 290.234375 104.4375 289.355469 84.300781 286.519531 78.9375 C 283.773438 73.59375 275.078125 90.773438 273.539062 95.125 C 272.085938 99.488281 270.035156 101.105469 270.039062 101.101562 C 263.035156 98.71875 254.109375 103.992188 250.46875 104.410156 C 246.789062 104.871094 235.808594 91.761719 231.367188 89.53125 C 226.878906 87.328125 229.851562 108.445312 233.445312 118.058594 C 237.050781 127.675781 234.585938 133.503906 234.570312 133.507812 C 223.195312 156.765625 200.5 144.652344 174.78125 153.460938 C 148.871094 162.191406 135.382812 195.582031 122.988281 236.105469 C 118.058594 252.179688 119.652344 263.996094 123.683594 272.402344 C 120.59375 273.765625 117.117188 274.742188 113.445312 274.707031 C 113.300781 274.710938 113.160156 274.710938 113.007812 274.714844 C 112.996094 274.710938 112.984375 274.710938 112.96875 274.710938 C 112.582031 274.683594 112.191406 274.648438 111.800781 274.625 C 111.410156 274.59375 111.015625 274.5625 110.621094 274.535156 C 110.363281 274.480469 110.230469 274.410156 110.03125 274.367188 C 109.851562 274.316406 109.664062 274.273438 109.480469 274.242188 C 109.398438 274.238281 109.269531 274.1875 109.144531 274.144531 C 109.015625 274.101562 108.894531 274.058594 108.769531 274.019531 C 108.273438 273.847656 107.757812 273.71875 107.277344 273.460938 C 105.3125 272.609375 103.40625 271.265625 101.71875 269.496094 C 100.039062 267.730469 98.589844 265.5625 97.53125 263.191406 C 96.988281 262.011719 96.582031 260.769531 96.25 259.519531 C 96.074219 258.902344 95.996094 258.265625 95.851562 257.640625 C 95.804688 257.328125 95.78125 257.011719 95.746094 256.703125 C 95.726562 256.546875 95.707031 256.390625 95.691406 256.230469 C 95.683594 256.175781 95.675781 256.121094 95.671875 256.066406 C 95.667969 256.015625 95.664062 255.960938 95.664062 255.910156 C 95.644531 255.492188 95.621094 255.070312 95.601562 254.65625 C 95.585938 254.414062 95.605469 254.320312 95.609375 254.171875 C 95.617188 254.035156 95.621094 253.902344 95.628906 253.765625 C 95.628906 253.628906 95.632812 253.488281 95.640625 253.355469 C 95.652344 253.191406 95.667969 253.027344 95.679688 252.863281 C 95.714844 252.535156 95.71875 252.210938 95.773438 251.878906 C 95.921875 250.554688 96.210938 249.21875 96.570312 247.867188 C 97.316406 245.164062 98.460938 242.421875 99.910156 239.710938 C 100.625 238.355469 101.429688 237.007812 102.289062 235.675781 C 102.394531 235.507812 102.5 235.339844 102.609375 235.171875 C 102.621094 235.152344 102.632812 235.128906 102.648438 235.109375 C 102.722656 234.992188 102.589844 235.203125 102.621094 235.15625 C 102.652344 235.109375 102.683594 235.0625 102.714844 235.019531 C 102.777344 234.925781 102.839844 234.832031 102.902344 234.742188 C 103.152344 234.371094 103.402344 234.003906 103.652344 233.628906 C 104.125 232.980469 104.503906 232.445312 105.019531 231.769531 C 107.003906 229.128906 109.226562 226.417969 111.492188 223.597656 C 113.761719 220.78125 116.070312 217.859375 118.289062 214.777344 C 120.503906 211.679688 122.652344 208.433594 124.523438 204.84375 C 126.386719 201.261719 128.003906 197.339844 128.964844 192.96875 C 129.90625 188.601562 130.042969 183.667969 128.96875 178.863281 C 127.90625 174.046875 125.605469 169.636719 122.980469 166.066406 C 122.3125 165.1875 121.65625 164.261719 120.945312 163.496094 C 120.589844 163.101562 120.242188 162.703125 119.890625 162.308594 C 119.714844 162.113281 119.539062 161.914062 119.363281 161.71875 C 119.15625 161.507812 118.949219 161.292969 118.742188 161.082031 C 118.601562 160.941406 118.464844 160.800781 118.324219 160.660156 C 118.257812 160.589844 118.1875 160.519531 118.117188 160.445312 C 118.007812 160.34375 117.894531 160.238281 117.78125 160.132812 C 117.332031 159.71875 116.867188 159.289062 116.429688 158.90625 C 115.609375 158.210938 114.785156 157.539062 113.9375 156.910156 C 112.242188 155.652344 110.488281 154.539062 108.703125 153.558594 C 106.910156 152.59375 105.082031 151.769531 103.242188 151.066406 C 101.402344 150.359375 99.535156 149.824219 97.683594 149.386719 C 96.753906 149.167969 95.824219 148.988281 94.898438 148.835938 C 94.4375 148.753906 93.972656 148.703125 93.511719 148.640625 C 93.28125 148.609375 93.050781 148.582031 92.820312 148.546875 C 92.558594 148.523438 92.296875 148.5 92.035156 148.476562 C 91.605469 148.414062 90.128906 148.339844 89.226562 148.332031 C 88.296875 148.316406 87.390625 148.339844 86.5 148.382812 C 84.730469 148.476562 83.035156 148.691406 81.398438 148.96875 C 78.128906 149.539062 75.097656 150.441406 72.269531 151.628906 C 66.644531 153.972656 61.703125 157.664062 58.507812 162.191406 C 56.90625 164.421875 55.785156 166.777344 55.074219 168.910156 C 54.359375 171.054688 54.074219 172.96875 53.921875 174.496094 C 53.800781 176.015625 53.800781 177.183594 53.847656 177.945312 C 53.886719 178.714844 53.910156 179.109375 53.910156 179.109375 C 54.601562 185.890625 60.992188 191.105469 68.074219 190.589844 C 75.164062 190.082031 80.078125 184.078125 79.160156 177.332031 C 79.175781 177.347656 79.105469 177.101562 79.050781 176.835938 C 79.035156 176.550781 78.914062 176.390625 79.160156 175.785156 C 79.292969 175.480469 79.570312 175.03125 80.144531 174.488281 C 80.40625 174.207031 80.785156 173.929688 81.183594 173.625 C 81.617188 173.335938 82.085938 173.015625 82.648438 172.730469 C 83.75 172.148438 85.113281 171.605469 86.613281 171.222656 C 87.359375 171.03125 88.136719 170.878906 88.914062 170.769531 C 89.300781 170.726562 89.683594 170.679688 90.066406 170.65625 C 90.140625 170.652344 90.214844 170.648438 90.289062 170.640625 C 90.34375 170.636719 90.394531 170.632812 90.449219 170.625 C 90.453125 170.597656 90.898438 170.621094 91.222656 170.628906 C 91.308594 170.632812 91.394531 170.632812 91.480469 170.636719 C 91.523438 170.640625 91.566406 170.640625 91.609375 170.640625 C 91.6875 170.644531 91.160156 170.605469 91.398438 170.625 C 91.414062 170.625 91.425781 170.625 91.441406 170.625 C 91.546875 170.632812 91.652344 170.640625 91.757812 170.648438 C 91.96875 170.667969 92.183594 170.65625 92.398438 170.691406 C 92.828125 170.730469 93.265625 170.773438 93.707031 170.847656 C 94.585938 170.996094 95.492188 171.167969 96.390625 171.453125 C 97.292969 171.726562 98.199219 172.058594 99.089844 172.460938 C 99.976562 172.871094 100.847656 173.347656 101.6875 173.882812 C 102.109375 174.152344 102.511719 174.445312 102.921875 174.742188 C 103.085938 174.867188 103.203125 174.960938 103.355469 175.066406 C 103.390625 175.089844 103.429688 175.117188 103.464844 175.144531 C 103.539062 175.210938 103.613281 175.277344 103.6875 175.347656 C 103.835938 175.480469 103.984375 175.617188 104.132812 175.753906 C 104.207031 175.820312 104.285156 175.886719 104.359375 175.957031 C 104.390625 175.984375 104.421875 176.015625 104.453125 176.042969 C 104.519531 176.109375 104.585938 176.179688 104.652344 176.25 C 104.847656 176.445312 105.042969 176.640625 105.238281 176.835938 C 105.667969 177.21875 105.945312 177.628906 106.304688 178.015625 C 107.621094 179.621094 108.550781 181.183594 109.046875 182.910156 C 109.523438 184.636719 109.667969 186.621094 109.300781 188.957031 C 108.910156 191.300781 108.042969 193.910156 106.804688 196.597656 C 105.574219 199.292969 103.953125 202.070312 102.15625 204.871094 C 100.351562 207.671875 98.347656 210.5 96.257812 213.402344 C 94.164062 216.308594 91.972656 219.285156 89.824219 222.480469 C 89.296875 223.261719 88.6875 224.214844 88.160156 225.039062 C 87.933594 225.421875 87.703125 225.800781 87.476562 226.179688 C 87.335938 226.414062 87.199219 226.644531 87.058594 226.875 C 86.9375 227.089844 86.816406 227.300781 86.695312 227.515625 C 85.726562 229.21875 84.8125 230.960938 83.988281 232.753906 C 82.320312 236.332031 80.960938 240.09375 80.105469 244.039062 C 79.691406 246.019531 79.382812 248.027344 79.265625 250.082031 C 79.222656 250.589844 79.226562 251.109375 79.210938 251.625 C 79.207031 251.882812 79.203125 252.136719 79.195312 252.394531 C 79.203125 252.683594 79.210938 252.964844 79.21875 253.25 C 79.230469 253.53125 79.242188 253.816406 79.25 254.101562 C 79.265625 254.378906 79.273438 254.703125 79.296875 254.882812 C 79.34375 255.300781 79.386719 255.71875 79.429688 256.136719 C 79.433594 256.1875 79.441406 256.242188 79.445312 256.292969 C 79.453125 256.386719 79.464844 256.480469 79.472656 256.578125 C 79.476562 256.609375 79.480469 256.640625 79.488281 256.675781 C 79.507812 256.804688 79.53125 256.933594 79.550781 257.066406 C 79.597656 257.324219 79.640625 257.582031 79.683594 257.839844 C 79.777344 258.355469 79.855469 258.878906 79.96875 259.386719 C 80.234375 260.394531 80.453125 261.40625 80.78125 262.382812 C 81.421875 264.347656 82.191406 266.253906 83.152344 268.070312 C 85.046875 271.71875 87.546875 275.089844 90.683594 278.007812 C 93.808594 280.921875 97.632812 283.371094 101.867188 284.902344 C 102.898438 285.328125 104.003906 285.597656 105.085938 285.875 C 105.355469 285.945312 105.625 286.011719 105.894531 286.082031 C 106.164062 286.148438 106.421875 286.214844 106.75 286.257812 C 107.371094 286.355469 107.988281 286.449219 108.605469 286.527344 C 109.203125 286.601562 109.867188 286.6875 110.402344 286.734375 C 110.804688 286.738281 111.203125 286.75 111.601562 286.757812 C 112 286.765625 112.394531 286.773438 112.785156 286.78125 C 113.039062 286.78125 113.292969 286.785156 113.546875 286.789062 C 113.667969 286.78125 113.789062 286.773438 113.914062 286.765625 C 114.15625 286.746094 114.398438 286.730469 114.644531 286.710938 C 118.527344 286.480469 122.117188 285.65625 125.1875 284.515625 C 127.113281 283.800781 128.867188 283 130.484375 282.152344 C 135.816406 287.636719 141.179688 289.800781 141.175781 289.800781 C 143.722656 279.4375 161.453125 268.566406 162.382812 268.632812 C 162.464844 268.703125 143.859375 282.019531 145.023438 291.28125 C 146.398438 301.484375 213.886719 292.308594 225.265625 291.015625 C 236.855469 290.890625 262.816406 293.703125 258.144531 281.039062 C 253.519531 268.660156 223.148438 274.890625 223.085938 274.710938 C 236.523438 267.84375 244.75 258.460938 248.433594 247.777344 C 248.742188 246.878906 249.019531 245.976562 249.261719 245.058594 C 251.421875 237.09375 251.195312 228.449219 248.964844 219.410156 C 243.390625 197.585938 213.746094 196.339844 213.15625 196.0625 C 213.460938 196.609375 264.601562 192.144531 253.15625 247.464844 C 269.082031 257.792969 282.683594 271.542969 286.558594 275.359375 C 291.289062 280.042969 292.675781 281.78125 296.488281 280.207031 C 300.292969 278.675781 314.464844 277.363281 317.804688 276.527344 C 321.144531 275.730469 321.558594 272.367188 319.898438 269.085938 " fill-opacity="1" fill-rule="nonzero"/></g></svg>