<svg xmlns="http://www.w3.org/2000/svg" xmlns:xlink="http://www.w3.org/1999/xlink" width="500" zoomAndPan="magnify" viewBox="0 0 375 374.999991" height="500" preserveAspectRatio="xMidYMid meet" version="1.0"><defs><clipPath id="b937efe47a"><path d="M 22.515625 52.007812 L 349 52.007812 L 349 322.757812 L 22.515625 322.757812 Z M 22.515625 52.007812 " clip-rule="nonzero"/></clipPath></defs><g clip-path="url(#b937efe47a)"><path fill="#545454" d="M 213.714844 215.359375 C 193.273438 209.683594 173.496094 204.15625 154.238281 198.773438 C 145.53125 203.269531 145.53125 212.042969 143.167969 219.785156 C 141.542969 225.09375 139.257812 230.476562 136.304688 235.191406 C 129.738281 245.515625 129.886719 267.632812 137.484375 277.214844 C 139.109375 279.28125 142.503906 279.796875 144.347656 281.710938 C 146.488281 283.851562 147.816406 286.800781 149.441406 289.453125 C 146.929688 290.929688 144.570312 293.289062 141.839844 293.730469 C 132.984375 295.128906 126.566406 293.507812 124.128906 281.785156 C 122.0625 271.832031 118.667969 262.175781 116.75 252.148438 C 115.863281 247.429688 115.792969 241.828125 117.488281 237.550781 C 121.988281 226.640625 120.734375 216.097656 116.75 204.890625 C 109.296875 222.363281 100.886719 239.542969 94.6875 257.457031 C 90.480469 269.695312 93.136719 282.300781 100.292969 293.65625 C 101.917969 296.238281 102.214844 299.628906 103.761719 304.714844 C 96.164062 304.273438 90.039062 304.125 83.988281 303.386719 C 82.878906 303.238281 81.328125 301.027344 81.257812 299.628906 C 80.074219 283.410156 79.117188 267.117188 78.15625 250.824219 C 78.082031 249.789062 78.453125 248.535156 79.042969 247.726562 C 85.980469 238.511719 84.578125 228.042969 83.691406 217.574219 C 82.585938 204.15625 81.328125 190.738281 80.59375 177.246094 C 80.148438 169.0625 80.519531 160.804688 80.519531 155.054688 C 74.613281 165.746094 69.375 180.5625 59.636719 191.328125 C 49.96875 202.238281 35.726562 209.09375 22.515625 216.910156 C 25.175781 208.136719 26.207031 198.773438 34.101562 193.316406 C 46.574219 184.691406 54.542969 172.894531 60.226562 159.183594 C 62.882812 152.769531 66.277344 146.652344 69.746094 140.605469 C 76.164062 129.546875 86.050781 124.3125 98.820312 123.796875 C 102.730469 123.648438 106.714844 122.246094 110.332031 120.625 C 123.390625 114.800781 137.339844 114.507812 151.210938 114.582031 C 159.476562 114.652344 167.742188 115.242188 175.933594 116.277344 C 194.378906 118.5625 212.164062 114.066406 229.875 110.527344 C 239.910156 108.535156 249.207031 103.449219 253.78125 92.609375 C 256.144531 87.082031 259.980469 82.214844 263.15625 77.054688 C 256.882812 70.199219 257.988281 66.882812 265.589844 61.71875 C 275.921875 54.789062 287.210938 53.019531 299.019531 52.578125 C 311.339844 52.136719 323.515625 59.582031 328.3125 70.863281 C 329.273438 73.148438 330.011719 76.097656 329.421875 78.382812 C 328.019531 84.355469 330.453125 88.480469 334.585938 92.167969 C 336.0625 93.496094 337.90625 94.453125 339.011719 96.003906 C 342.039062 100.203125 352.515625 100.128906 347.425781 109.050781 C 344.621094 113.992188 340.710938 118.265625 336.945312 122.617188 C 334.808594 125.125 332.222656 128.734375 329.566406 128.957031 C 324.035156 129.472656 318.054688 128.808594 312.667969 127.1875 C 308.316406 125.859375 305.585938 126.300781 302.191406 129.179688 C 295.402344 134.929688 291.046875 141.269531 291.121094 150.851562 C 291.121094 156.972656 288.097656 163.015625 287.136719 169.210938 C 285.367188 180.859375 281.972656 191.84375 275.625 201.871094 C 266.769531 216.023438 265.8125 232.390625 263.964844 248.242188 C 262.492188 260.480469 262.710938 272.941406 262.636719 285.324219 C 262.636719 290.632812 262.785156 296.089844 270.828125 296.972656 C 275.847656 297.488281 277.988281 305.15625 275.996094 309.949219 C 270.679688 310.242188 265.515625 310.90625 260.5 310.613281 C 258.285156 310.539062 254.890625 309.136719 254.152344 307.441406 C 251.644531 301.542969 248.988281 295.277344 248.394531 289.011719 C 246.257812 266.304688 244.855469 243.523438 243.230469 220.742188 C 243.15625 220.152344 242.863281 219.5625 242.125 216.984375 C 241.089844 221.480469 240.207031 224.132812 239.910156 226.9375 C 237.476562 248.316406 234.890625 269.621094 232.972656 291.074219 C 232.382812 297.859375 232.53125 304.863281 239.910156 309.507812 C 242.125 310.90625 242.34375 315.332031 243.527344 318.425781 C 239.613281 319.753906 235.777344 321.597656 231.792969 322.1875 C 228.988281 322.628906 225.742188 321.820312 223.160156 320.492188 C 221.019531 319.386719 218.511719 317.027344 218.214844 314.886719 C 216.960938 305.671875 215.925781 296.382812 215.632812 287.019531 C 215.042969 267.261719 215.042969 247.429688 214.671875 227.671875 C 214.523438 223.324219 214.007812 219.046875 213.714844 215.359375 Z M 213.714844 215.359375 " fill-opacity="1" fill-rule="nonzero"/></g></svg>