<svg xmlns="http://www.w3.org/2000/svg" xmlns:xlink="http://www.w3.org/1999/xlink" width="500" zoomAndPan="magnify" viewBox="0 0 375 374.999991" height="500" preserveAspectRatio="xMidYMid meet" version="1.0"><defs><clipPath id="676ddbce15"><path d="M 102 118 L 274.195312 118 L 274.195312 257.214844 L 102 257.214844 Z M 102 118 " clip-rule="nonzero"/></clipPath></defs><rect x="-37.5" width="450" fill="#ffffff" y="-37.499999" height="449.999989" fill-opacity="1"/><rect x="-37.5" width="450" fill="#ffffff" y="-37.499999" height="449.999989" fill-opacity="1"/><g clip-path="url(#676ddbce15)"><path fill="#545454" d="M 191.742188 256.988281 C 184.207031 257.203125 176.59375 256.988281 169.054688 256.988281 C 166.898438 256.988281 166.847656 253.527344 166.847656 253.527344 C 166.847656 253.527344 165.941406 253.378906 164.386719 254.332031 C 164.386719 254.332031 164.691406 252.023438 168.855469 251.375 C 173.019531 250.722656 185.714844 251.875 191.738281 248.464844 C 178.707031 242.542969 176.066406 228.132812 179.746094 216.035156 C 179.746094 216.035156 177.082031 221.207031 176.753906 229.035156 C 174.648438 227.15625 170.636719 224.273438 166.726562 224.53125 C 167.378906 220.007812 166.601562 213.878906 166.601562 213.878906 C 165.949219 225.246094 159.191406 257.054688 149.234375 257.054688 C 145.238281 257.054688 141.828125 257.054688 137.828125 257.054688 C 135.847656 257.054688 135.882812 254.898438 135.882812 254.898438 C 135.882812 254.898438 135.007812 254.824219 134.429688 255.351562 C 134.429688 255.351562 134.652344 253.871094 137.039062 253.671875 C 139.421875 253.46875 144.441406 253.773438 146.5 251.441406 C 148.558594 249.109375 155.710938 231.898438 149.484375 219.265625 C 143.398438 206.917969 138.65625 203.855469 135.824219 179.164062 C 139.550781 180.730469 142.335938 182.652344 142.335938 182.652344 C 135.34375 172.386719 115.074219 176.152344 106.332031 156.375 C 100.953125 154.484375 102.761719 149.851562 103.914062 147.792969 C 106.726562 142.777344 119.875 131.152344 133.929688 126.839844 C 140.050781 124.964844 147.929688 122.742188 157.195312 123.058594 C 154.585938 126.324219 154.28125 130.222656 154.28125 130.222656 C 157.199219 121.796875 162.984375 117.734375 172.496094 119.296875 C 182.917969 121.003906 173.898438 131.75 169.886719 133.457031 C 169.886719 133.457031 172.964844 132.972656 177.097656 127.980469 C 183.910156 131.113281 191.765625 136.011719 199.371094 143.28125 C 227.476562 170.148438 261.203125 172.054688 266.621094 206.132812 C 271.140625 234.542969 263.820312 243.910156 261.261719 246.246094 C 259.25 245.570312 258.195312 244.375 258.195312 244.375 C 258.40625 248.234375 274.199219 250.417969 274.199219 253.601562 C 274.199219 255.605469 265.554688 254.566406 259.257812 252.632812 C 253.433594 250.851562 251.761719 256.230469 244.363281 257.054688 L 221.113281 257.054688 C 216.109375 256.476562 210.597656 255.265625 204.554688 252.875 C 207.316406 249.339844 207.101562 243.246094 207.101562 243.246094 C 205.933594 251.894531 200.542969 256.734375 191.742188 256.980469 Z M 191.742188 256.988281 " fill-opacity="1" fill-rule="evenodd"/></g></svg>