<svg xmlns="http://www.w3.org/2000/svg" xmlns:xlink="http://www.w3.org/1999/xlink" width="500" zoomAndPan="magnify" viewBox="0 0 375 374.999991" height="500" preserveAspectRatio="xMidYMid meet" version="1.0"><defs><clipPath id="283d3d1bb3"><path d="M 81.074219 82.527344 L 293.652344 82.527344 L 293.652344 292.527344 L 81.074219 292.527344 Z M 81.074219 82.527344 " clip-rule="nonzero"/></clipPath></defs><g clip-path="url(#283d3d1bb3)"><path fill="#545454" d="M 293.179688 180.945312 C 290.066406 172.800781 269.269531 145.960938 264.945312 144.523438 C 260.660156 143.105469 251.566406 143.578125 251.566406 143.578125 C 247.507812 97.820312 237.449219 92.792969 230.523438 87.765625 C 223.578125 82.738281 224.3125 102.621094 224.3125 102.621094 C 221.917969 94.226562 209.726562 80.582031 201.347656 82.738281 C 192.96875 84.890625 197.515625 112.449219 198.703125 120.105469 C 199.914062 127.757812 210.667969 138.777344 214.726562 144.769531 C 218.804688 150.761719 216.652344 156.035156 216.652344 156.035156 C 213.292969 160.816406 213.785156 172.875 213.785156 172.875 C 205.402344 171.515625 197.269531 181.175781 197.269531 181.175781 C 178.378906 173.046875 167.566406 172.875 167.566406 172.875 C 110.230469 173.445312 102.929688 228.125 102.078125 246.25 C 100.039062 245.363281 97.191406 245.382812 93.511719 248.273438 C 85.074219 254.945312 91.09375 263.089844 91.09375 263.089844 C 88.71875 262.449219 86.359375 251.46875 86.359375 251.46875 C 80.960938 263.015625 90.773438 270.917969 90.773438 270.917969 C 87.113281 271.710938 81.074219 267.589844 81.074219 267.589844 C 81.640625 268.363281 85.433594 274.28125 92.792969 281.992188 C 102.058594 291.707031 115.761719 289.609375 122.5 289.363281 C 122.742188 289.402344 122.953125 289.382812 123.140625 289.328125 C 123.195312 289.328125 123.273438 289.328125 123.347656 289.328125 L 123.367188 289.230469 C 124.441406 288.777344 125.273438 287.265625 129.671875 288.742188 L 135.351562 292.3125 C 135.351562 292.3125 185.378906 292.765625 193.230469 292.3125 C 197.476562 292.046875 188.910156 279.855469 188.910156 279.855469 C 204.460938 278.894531 212.839844 273.148438 212.839844 273.148438 L 236.84375 292.765625 C 236.84375 292.765625 260.324219 292.765625 262.039062 292.765625 C 266.984375 292.765625 263.945312 287.457031 263.945312 287.457031 L 240.335938 265.964844 L 242.960938 261.410156 C 252.054688 259.5 258.492188 250.636719 259.453125 248.953125 C 260.417969 247.269531 259.699219 234.835938 259.699219 234.835938 C 259.699219 234.835938 260.660156 236.023438 264.71875 230.996094 C 268.777344 225.96875 264.230469 218.070312 263.039062 216.386719 C 261.851562 214.703125 259.453125 204.15625 259.453125 204.15625 C 259.453125 204.15625 275.476562 203.210938 279.308594 201.285156 C 283.140625 199.375 296.273438 189.074219 293.179688 180.945312 " fill-opacity="1" fill-rule="nonzero"/></g></svg>