<svg xmlns="http://www.w3.org/2000/svg" xmlns:xlink="http://www.w3.org/1999/xlink" width="500" zoomAndPan="magnify" viewBox="0 0 375 374.999991" height="500" preserveAspectRatio="xMidYMid meet" version="1.0"><path fill="#545454" d="M 289.496094 142.371094 C 288.59375 140.429688 286.785156 139.660156 285.113281 138.621094 C 283.394531 137.582031 282.039062 136 280.230469 135.140625 C 278.242188 134.191406 276.296875 134.6875 274.445312 135.5 C 273.222656 135.277344 271.957031 135.140625 270.738281 135.277344 C 269.15625 135.410156 267.710938 136 266.21875 136.542969 C 262.828125 137.714844 259.257812 137.761719 256.410156 140.203125 C 253.699219 142.460938 253.019531 145.894531 251.121094 148.789062 C 249.269531 151.589844 247.460938 154.4375 245.921875 157.421875 C 245.019531 159.183594 244.476562 160.945312 243.617188 162.574219 C 242.625 161.398438 241.492188 160.359375 240.183594 159.542969 C 239.460938 159.09375 238.601562 158.820312 237.832031 158.460938 C 237.652344 158.371094 237.425781 158.277344 237.152344 158.234375 C 236.882812 156.921875 236.203125 155.476562 235.527344 154.484375 C 234.488281 152.902344 233.3125 151.636719 231.910156 150.414062 C 230.601562 149.285156 229.335938 148.15625 228.070312 146.933594 C 226.578125 145.488281 224.90625 144.8125 223.097656 143.90625 C 221.832031 143.320312 220.203125 142.144531 218.757812 141.828125 C 216.722656 139.570312 213.105469 138.621094 210.484375 137.714844 C 207.050781 136.542969 203.613281 135.320312 200.132812 134.328125 C 192.992188 132.246094 185.398438 129.265625 178.03125 131.929688 C 174.957031 133.0625 171.117188 134.644531 168.945312 137.355469 C 163.839844 136.226562 159.046875 134.460938 153.714844 135.636719 C 148.246094 136.859375 144.265625 140.699219 141.191406 145.355469 C 139.835938 147.386719 138.480469 149.421875 137.261719 151.546875 C 133.914062 151.953125 130.84375 154.574219 127.996094 156.289062 C 124.46875 158.414062 120.445312 160.992188 117.507812 163.929688 C 113.9375 167.5 113.125 172.199219 111.089844 176.71875 C 109.328125 180.605469 107.5625 184.402344 105.53125 188.152344 C 103.359375 192.128906 102.230469 196.105469 102.726562 200.355469 C 99.789062 203.019531 97.710938 205.914062 95.089844 208.941406 C 93.191406 211.15625 92.015625 213.777344 89.9375 215.855469 C 87.902344 217.886719 84.285156 219.96875 85.867188 223.355469 C 87.222656 226.292969 90.75 226.519531 92.875 228.644531 C 94.546875 230.316406 96.039062 232.257812 97.4375 234.25 C 97.03125 236.28125 96.761719 238.40625 96.171875 240.394531 C 95.40625 243.0625 93.777344 244.777344 92.058594 246.8125 C 90.433594 248.710938 89.304688 251.105469 88.398438 253.457031 C 87.449219 255.894531 86.003906 259.648438 86.457031 262.269531 C 86.996094 265.296875 88.488281 265.070312 90.253906 264.480469 C 90.839844 266.605469 92.285156 268.367188 94.5 268.59375 C 96.625 268.777344 98.253906 267.554688 99.292969 265.839844 C 100.332031 266.695312 101.460938 267.417969 102.910156 267.285156 C 104.21875 267.195312 106.660156 266.15625 107.382812 264.617188 C 108.875 265.070312 110.367188 265.070312 111.992188 264.03125 C 115.789062 261.589844 115.339844 256.574219 116.332031 252.597656 C 116.921875 250.292969 117.507812 247.988281 118.683594 245.953125 C 119.136719 245.183594 120.492188 243.105469 121.621094 241.976562 C 124.378906 243.378906 127.679688 243.828125 130.570312 243.964844 C 139.429688 244.28125 146.664062 240.980469 154.527344 237.410156 C 158.414062 235.648438 162.390625 233.976562 166.460938 232.621094 C 168.496094 231.945312 170.664062 231.945312 172.699219 231.355469 C 174.234375 230.902344 175.636719 230.136719 177.039062 229.320312 C 177.355469 230.859375 177.714844 232.394531 178.167969 233.886719 C 179.34375 237.820312 181.828125 241.34375 185.445312 243.195312 C 189.195312 245.140625 192.8125 244.644531 196.699219 244.371094 C 196.96875 247.761719 197.242188 251.242188 197.785156 254.585938 C 198.371094 258.15625 199.410156 260.957031 201.265625 263.984375 C 202.9375 266.742188 202.980469 270.628906 205.242188 272.933594 C 207.410156 275.101562 211.433594 276.367188 214.28125 276.863281 C 217.402344 277.40625 221.0625 278.492188 222.238281 275.191406 C 225.175781 275.644531 228.972656 272.84375 226.847656 270.222656 C 231.550781 267.328125 223.230469 261.363281 222.28125 256.933594 C 223.324219 255.261719 223.910156 252.640625 223.863281 251.375 C 223.640625 245.863281 225.085938 240.890625 226.171875 235.46875 C 227.164062 230.585938 226.394531 225.074219 225.855469 220.285156 C 229.558594 220.285156 233.855469 218.339844 236.792969 216.621094 C 237.246094 219.246094 237.96875 221.683594 238.78125 224.261719 C 240.542969 229.683594 237.0625 235.015625 236.429688 240.441406 C 236.113281 243.242188 234.894531 246.40625 236.339844 249.160156 C 237.46875 251.332031 239.820312 251.058594 241.765625 250.109375 C 243.257812 252.730469 247.1875 251.015625 249.222656 248.84375 C 251.617188 249.976562 254.105469 250.292969 256.003906 248.304688 C 258.578125 249.117188 262.058594 248.9375 262.917969 246.269531 C 268.476562 247.582031 265.269531 238.496094 265.402344 234.835938 C 265.628906 229.910156 267.710938 225.390625 267.980469 220.554688 C 268.207031 216.308594 267.210938 210.160156 265.71875 206.183594 C 264.183594 202.070312 260.117188 198.863281 256.953125 196.105469 C 254.238281 193.753906 251.167969 192.488281 248.003906 191.179688 C 248.542969 190.726562 249.085938 190.230469 249.675781 189.824219 C 251.933594 188.152344 254.828125 185.347656 256.226562 182.863281 C 256.5 182.410156 256.726562 181.960938 256.996094 181.507812 C 257.492188 181.011719 257.992188 180.46875 258.578125 180.0625 C 259.484375 179.339844 260.433594 178.570312 261.246094 177.710938 C 261.5625 177.394531 261.742188 176.945312 262.058594 176.582031 C 262.421875 176.128906 262.917969 175.859375 263.234375 175.363281 C 263.777344 174.367188 264.183594 173.417969 264.863281 172.558594 C 265.539062 171.703125 266.445312 171.070312 267.078125 170.121094 C 267.753906 169.078125 268.613281 168.132812 269.199219 167 C 269.699219 166.007812 270.332031 165.011719 271.007812 164.0625 C 271.550781 163.296875 272.230469 162.707031 272.953125 162.074219 C 273.359375 161.714844 273.8125 161.261719 274.261719 160.898438 C 275.800781 160.71875 277.109375 160.402344 277.789062 159.003906 C 278.558594 159.003906 279.417969 158.957031 280.09375 158.640625 C 281 158.1875 281.179688 157.328125 281.675781 156.605469 C 282.355469 156.878906 283.121094 156.96875 283.890625 157.011719 C 286.421875 157.148438 288.683594 156.335938 287.144531 153.308594 C 286.242188 151.5 284.34375 150.324219 282.761719 149.105469 C 284.34375 148.699219 285.96875 148.335938 287.460938 147.660156 C 289.585938 146.710938 290.535156 144.628906 289.496094 142.371094 Z M 289.496094 142.371094 " fill-opacity="1" fill-rule="nonzero"/></svg>