<svg xmlns="http://www.w3.org/2000/svg" xmlns:xlink="http://www.w3.org/1999/xlink" width="500" zoomAndPan="magnify" viewBox="0 0 375 374.999991" height="500" preserveAspectRatio="xMidYMid meet" version="1.0"><rect x="-37.5" width="450" fill="#ffffff" y="-37.499999" height="449.999989" fill-opacity="1"/><rect x="-37.5" width="450" fill="#ffffff" y="-37.499999" height="449.999989" fill-opacity="1"/><rect x="-37.5" width="450" fill="#ffffff" y="-37.499999" height="449.999989" fill-opacity="1"/><path fill="#545454" d="M 289.496094 144.101562 C 288.59375 142.160156 286.785156 141.390625 285.113281 140.351562 C 283.394531 139.3125 282.039062 137.730469 280.230469 136.871094 C 278.242188 135.921875 276.296875 136.421875 274.445312 137.234375 C 273.222656 137.007812 271.957031 136.871094 270.738281 137.007812 C 269.15625 137.144531 267.710938 137.730469 266.21875 138.273438 C 262.828125 139.449219 259.257812 139.492188 256.410156 141.933594 C 253.699219 144.195312 253.019531 147.628906 251.121094 150.519531 C 249.269531 153.324219 247.460938 156.167969 245.921875 159.152344 C 245.019531 160.914062 244.476562 162.675781 243.617188 164.304688 C 242.625 163.128906 241.492188 162.089844 240.183594 161.277344 C 239.460938 160.824219 238.601562 160.554688 237.832031 160.191406 C 237.652344 160.101562 237.425781 160.011719 237.152344 159.964844 C 236.882812 158.65625 236.203125 157.210938 235.527344 156.214844 C 234.488281 154.632812 233.3125 153.367188 231.910156 152.148438 C 230.601562 151.019531 229.335938 149.886719 228.070312 148.667969 C 226.578125 147.222656 224.90625 146.542969 223.097656 145.640625 C 221.832031 145.050781 220.203125 143.878906 218.757812 143.5625 C 216.722656 141.300781 213.105469 140.351562 210.484375 139.449219 C 207.050781 138.273438 203.613281 137.054688 200.132812 136.058594 C 192.992188 133.980469 185.398438 130.996094 178.03125 133.664062 C 174.957031 134.792969 171.117188 136.375 168.945312 139.085938 C 163.839844 137.957031 159.046875 136.195312 153.714844 137.371094 C 148.246094 138.589844 144.265625 142.429688 141.191406 147.085938 C 139.835938 149.121094 138.480469 151.152344 137.261719 153.277344 C 133.914062 153.683594 130.84375 156.304688 127.996094 158.023438 C 124.46875 160.148438 120.445312 162.722656 117.507812 165.660156 C 113.9375 169.230469 113.125 173.929688 111.089844 178.449219 C 109.328125 182.335938 107.5625 186.132812 105.53125 189.882812 C 103.359375 193.859375 102.230469 197.835938 102.726562 202.085938 C 99.789062 204.753906 97.710938 207.644531 95.089844 210.671875 C 93.191406 212.886719 92.015625 215.507812 89.9375 217.585938 C 87.902344 219.621094 84.285156 221.699219 85.867188 225.089844 C 87.222656 228.027344 90.75 228.253906 92.875 230.375 C 94.546875 232.046875 96.039062 233.992188 97.4375 235.980469 C 97.03125 238.015625 96.761719 240.136719 96.171875 242.125 C 95.40625 244.792969 93.777344 246.511719 92.058594 248.542969 C 90.433594 250.441406 89.304688 252.835938 88.398438 255.1875 C 87.449219 257.628906 86.003906 261.378906 86.457031 264 C 86.996094 267.027344 88.488281 266.800781 90.253906 266.214844 C 90.839844 268.339844 92.285156 270.101562 94.5 270.328125 C 96.625 270.507812 98.253906 269.289062 99.292969 267.570312 C 100.332031 268.429688 101.460938 269.152344 102.910156 269.015625 C 104.21875 268.925781 106.660156 267.886719 107.382812 266.351562 C 108.875 266.800781 110.367188 266.800781 111.992188 265.761719 C 115.789062 263.320312 115.339844 258.304688 116.332031 254.328125 C 116.921875 252.023438 117.507812 249.71875 118.683594 247.683594 C 119.136719 246.917969 120.492188 244.839844 121.621094 243.707031 C 124.378906 245.109375 127.679688 245.5625 130.570312 245.695312 C 139.429688 246.011719 146.664062 242.714844 154.527344 239.144531 C 158.414062 237.382812 162.390625 235.710938 166.460938 234.351562 C 168.496094 233.675781 170.664062 233.675781 172.699219 233.089844 C 174.234375 232.636719 175.636719 231.867188 177.039062 231.054688 C 177.355469 232.589844 177.714844 234.128906 178.167969 235.617188 C 179.34375 239.550781 181.828125 243.074219 185.445312 244.929688 C 189.195312 246.871094 192.8125 246.375 196.699219 246.105469 C 196.96875 249.492188 197.242188 252.972656 197.785156 256.316406 C 198.371094 259.886719 199.410156 262.6875 201.265625 265.71875 C 202.9375 268.472656 202.980469 272.359375 205.242188 274.664062 C 207.410156 276.835938 211.433594 278.101562 214.28125 278.597656 C 217.402344 279.140625 221.0625 280.222656 222.238281 276.925781 C 225.175781 277.378906 228.972656 274.574219 226.847656 271.953125 C 231.550781 269.0625 223.230469 263.097656 222.28125 258.667969 C 223.324219 256.996094 223.910156 254.375 223.863281 253.109375 C 223.640625 247.59375 225.085938 242.625 226.171875 237.199219 C 227.164062 232.320312 226.394531 226.804688 225.855469 222.015625 C 229.558594 222.015625 233.855469 220.074219 236.792969 218.355469 C 237.246094 220.976562 237.96875 223.417969 238.78125 225.992188 C 240.542969 231.414062 237.0625 236.75 236.429688 242.171875 C 236.113281 244.972656 234.894531 248.136719 236.339844 250.894531 C 237.46875 253.0625 239.820312 252.792969 241.765625 251.84375 C 243.257812 254.464844 247.1875 252.746094 249.222656 250.578125 C 251.617188 251.707031 254.105469 252.023438 256.003906 250.035156 C 258.578125 250.847656 262.058594 250.667969 262.917969 248 C 268.476562 249.3125 265.269531 240.226562 265.402344 236.566406 C 265.628906 231.640625 267.710938 227.121094 267.980469 222.285156 C 268.207031 218.039062 267.210938 211.890625 265.71875 207.914062 C 264.183594 203.804688 260.117188 200.59375 256.953125 197.835938 C 254.238281 195.488281 251.167969 194.222656 248.003906 192.910156 C 248.542969 192.460938 249.085938 191.960938 249.675781 191.554688 C 251.933594 189.882812 254.828125 187.082031 256.226562 184.597656 C 256.5 184.144531 256.726562 183.691406 256.996094 183.242188 C 257.492188 182.742188 257.992188 182.199219 258.578125 181.792969 C 259.484375 181.070312 260.433594 180.300781 261.246094 179.445312 C 261.5625 179.128906 261.742188 178.675781 262.058594 178.3125 C 262.421875 177.863281 262.917969 177.589844 263.234375 177.09375 C 263.777344 176.101562 264.183594 175.152344 264.863281 174.292969 C 265.539062 173.433594 266.445312 172.800781 267.078125 171.851562 C 267.753906 170.8125 268.613281 169.863281 269.199219 168.734375 C 269.699219 167.738281 270.332031 166.746094 271.007812 165.796875 C 271.550781 165.027344 272.230469 164.441406 272.953125 163.808594 C 273.359375 163.445312 273.8125 162.992188 274.261719 162.632812 C 275.800781 162.453125 277.109375 162.136719 277.789062 160.734375 C 278.558594 160.734375 279.417969 160.6875 280.09375 160.371094 C 281 159.921875 281.179688 159.0625 281.675781 158.339844 C 282.355469 158.609375 283.121094 158.699219 283.890625 158.746094 C 286.421875 158.882812 288.683594 158.066406 287.144531 155.039062 C 286.242188 153.230469 284.34375 152.058594 282.761719 150.835938 C 284.34375 150.429688 285.96875 150.070312 287.460938 149.390625 C 289.585938 148.441406 290.535156 146.363281 289.496094 144.101562 Z M 289.496094 144.101562 " fill-opacity="1" fill-rule="nonzero"/></svg>